# xmcd
#
# Track frame offsets: 
#        150
#        13973
#        27135
#        41450
#        56903
#        69811
#        84231
#        96977
#        112017
#        124742
#        137500
#        151714
#        164632
#        178070
#        191899
#        206211
#        221338
#        235450
#        248927
#        262137
#        277108
#        289761
#        302930
#        315457
#        328007
#
# Disc length: 4534 seconds
#
# Revision: 1
# Processed by: cddbd v1.5.2PL0 Copyright (c) Steve Scherf et al.
# Submitted via: ExactAudioCopyFreeDBPlugin 1.0
#
DISCID=7c11b419
DTITLE=Various Artist - The Rough Guide to Blues Women: Reborn and Re
DTITLE=mastered
DYEAR=2016
DGENRE=Blues
TTITLE0=Ruth Willis - Man Of My Own [1933]
TTITLE1=Ma Rainey - Stack O' Lee Blues [1926]
TTITLE2=Geeshie Wiley and Elvie Thomas - Pick Poor Robin Clean [1931]
TTITLE3=Bessie Smith - Careless Love Blues [1925]
TTITLE4=Hattie Hart and The Memphis Jug Band - Cocaine Habit Blues [1930
TTITLE4=]
TTITLE5=Mattie Delaney - Down The Big Road Blues [1930]
TTITLE6=Bertha 'Chippie' Hill (feat. Louis Armstrong) - Trouble In Min
TTITLE6=d [1926]
TTITLE7=Lottie Kimbrough - Rolling Log Blues [1928]
TTITLE8=Louise Johnson - By The Moon And Stars [1930]
TTITLE9=Kate McTell (feat. Blind Willie McTell) - God Don't Like It [1
TTITLE9=935]
TTITLE10=Hattie Hudson - Black Hand Blues [1927]
TTITLE11=Memphis Minnie - 'Frisco Town [1929]
TTITLE12=Sara Martin (feat. Fats Waller) - T'Ain't Nobody's Business I
TTITLE12=f I Do [1922]
TTITLE13=Pearl Dickson - Little Rock Blues [1927]
TTITLE14=Sippie Wallace - Parlor Social De Luxe [1925]
TTITLE15=Irene Scruggs (feat. Blind Blake) - Itching Heel [1930]
TTITLE16=Leola Manning - The Arcade Building Moan [1930]
TTITLE17=Nellie Florence (feat. Barbecue Bob) - Midnight Weeping Blues
TTITLE17=[1928]
TTITLE18=Little Mae - Mama Don't Want It [1931]
TTITLE19=Mamie Smith - Crazy Blues [1920]
TTITLE20=Lucille Bogan - Shave 'Em Dry [1935]
TTITLE21=Bertha Lee (feat. Charley Patton) - Mind Reader Blues [1934]
TTITLE22=Ida Cox - Moanin' Groanin' Blues [1923]
TTITLE23=Mae Glover - I Ain't Giving Nobody None [1929]
TTITLE24=Victoria Spivey - Hoodoo Man Blues [1926]
EXTD=
EXTT0=
EXTT1=
EXTT2=
EXTT3=
EXTT4=
EXTT5=
EXTT6=
EXTT7=
EXTT8=
EXTT9=
EXTT10=
EXTT11=
EXTT12=
EXTT13=
EXTT14=
EXTT15=
EXTT16=
EXTT17=
EXTT18=
EXTT19=
EXTT20=
EXTT21=
EXTT22=
EXTT23=
EXTT24=
PLAYORDER=
